<?xml version="1.0" ?><svg data-name="Layer 1" id="Layer_1" viewBox="0 0 128 128" xmlns="http://www.w3.org/2000/svg"><defs><style>.cls-1{fill:#7790ed;}.cls-2{fill:#f5dda4;}.cls-3{fill:#e8d099;}.cls-4{fill:#ad9584;}.cls-5{fill:#847164;}.cls-6{fill:#99805d;}</style></defs><title/><path class="cls-1" d="M79.085,53.06641,65.95087,29.47491a1.99866,1.99866,0,0,0,.04718-.42413V19.10156h3.35742a2,2,0,0,0,0-4H65.99805V12a2,2,0,0,0-4,0v3.10156H58.6416a2,2,0,0,0,0,4h3.35645v9.94922a1.99874,1.99874,0,0,0,.04718.4242L48.91211,53.06641a1.50024,1.50024,0,0,0,1.31055,2.22949H77.77441A1.50024,1.50024,0,0,0,79.085,53.06641Z"/><path class="cls-2" d="M51.2832,64.55078a1.49984,1.49984,0,1,0-2.12109-2.12109L25.4375,86.15332a1.50062,1.50062,0,0,0-.43945,1.06055V114a1.50039,1.50039,0,0,0,1.5,1.5H50.22266a1.5,1.5,0,0,0,.00036-3V65.6109Z"/><path class="cls-2" d="M102.55957,86.15332,78.835,62.42969a1.49984,1.49984,0,0,0-2.12109,2.12109l1.06018,1.06012V112.5a1.5,1.5,0,0,0,.00036,3h23.72364a1.50039,1.50039,0,0,0,1.5-1.5l.001-26.78613A1.50062,1.50062,0,0,0,102.55957,86.15332Z"/><path class="cls-3" d="M77.77441,52.2959H50.22266a1.50038,1.50038,0,0,0-1.5,1.5V115.5H79.27441V53.7959A1.50038,1.50038,0,0,0,77.77441,52.2959Z"/><path class="cls-4" d="M54.80176,115.5V96.02148c0-8.50195,8.14746-12.91308,8.49414-13.09668a1.49576,1.49576,0,0,1,1.4043,0c.34668.1836,8.49511,4.59473,8.49511,13.09668V115.5Z"/><path class="cls-5" d="M82.59766,115.5V101.5332c0-6.48047,6.1875-9.8291,6.45117-9.96875a1.49933,1.49933,0,0,1,1.40332,0c.26269.13965,6.44922,3.48828,6.44922,9.96875V115.5Z"/><path class="cls-5" d="M31.0957,115.5V101.5332c0-6.48047,6.18653-9.8291,6.44922-9.96875a1.49933,1.49933,0,0,1,1.40332,0c.26367.13965,6.45117,3.48828,6.45117,9.96875V115.5Z"/><path class="cls-6" d="M63.99805,74.833a8.07959,8.07959,0,1,1,8.08007-8.08008A8.08877,8.08877,0,0,1,63.99805,74.833Z"/></svg>